<svg width="85" height="84" viewBox="0 0 85 84" fill="none" xmlns="http://www.w3.org/2000/svg">
<rect width="84" height="84" transform="translate(0.5)" fill="#0091E2"/>
<path d="M68.3645 37.8574C68.2332 37.7508 67.0438 36.8566 64.5336 36.8566C63.8692 36.8566 63.2047 36.9059 62.5485 37.0289C62.0645 33.6902 59.3082 32.066 59.1852 31.9922L58.5125 31.5984L58.0695 32.2383C57.5117 33.0996 57.1098 34.043 56.8719 35.0438C56.4207 36.9469 56.6914 38.7352 57.6594 40.2609C56.4945 40.909 54.616 41.073 54.2387 41.0813H23.2227C22.4105 41.0813 21.7543 41.7375 21.7543 42.5496C21.7215 45.2648 22.1809 47.9637 23.1078 50.5148C24.1742 53.3203 25.7656 55.3793 27.8328 56.6426C30.1461 58.0617 33.9113 58.8738 38.1852 58.8738C40.1129 58.882 42.0406 58.7016 43.9356 58.3488C46.5688 57.8648 49.1035 56.9461 51.4332 55.6254C53.3527 54.5098 55.0836 53.0988 56.552 51.4336C59.0047 48.6527 60.4731 45.552 61.5641 42.8039H61.9988C64.6895 42.8039 66.3465 41.7293 67.257 40.827C67.8641 40.2527 68.3399 39.5555 68.6434 38.7762L68.832 38.2102L68.3645 37.8574ZM26.0938 40.1871H30.2527C30.4496 40.1871 30.6137 40.023 30.6137 39.8262V36.1266C30.6137 35.9297 30.4496 35.7656 30.2527 35.7574H26.0938C25.8969 35.7574 25.7328 35.9215 25.7328 36.1184V39.8262C25.7328 40.0313 25.8969 40.1871 26.0938 40.1871ZM31.8277 40.1871H35.9867C36.1836 40.1871 36.3477 40.023 36.3477 39.8262V36.1266C36.3477 35.9297 36.1836 35.7656 35.9867 35.7574H31.8277C31.6227 35.7574 31.4586 35.9215 31.4586 36.1266V39.8262C31.4586 40.0313 31.6227 40.1871 31.8277 40.1871ZM37.6356 40.1953H41.7945C41.9914 40.1953 42.1555 40.0313 42.1555 39.8344V36.1348C42.1555 35.9379 41.9914 35.7738 41.7945 35.7656H37.6356C37.4387 35.7656 37.2746 35.9297 37.2746 36.1266V39.8344C37.2746 40.0313 37.4387 40.1871 37.6356 40.1953ZM43.3859 40.1953H47.5449C47.7418 40.1953 47.9059 40.0313 47.9141 39.8344V36.1348C47.9141 35.9297 47.75 35.7656 47.5449 35.7656H43.3859C43.1891 35.7656 43.025 35.9297 43.025 36.1266V39.8344C43.025 40.0313 43.1809 40.1953 43.3859 40.1953ZM31.8195 34.8633H35.9785C36.1754 34.8633 36.3395 34.6992 36.3395 34.4941V30.7945C36.3395 30.5977 36.1754 30.4336 35.9785 30.4336H31.8195C31.6145 30.4336 31.4586 30.5977 31.4504 30.7945V34.4941C31.4586 34.6992 31.6227 34.8633 31.8195 34.8633ZM37.6356 34.8633H41.7945C41.9914 34.8633 42.1555 34.6992 42.1555 34.4941V30.7945C42.1555 30.5977 41.9914 30.4336 41.7945 30.4336H37.6356C37.4387 30.4336 37.2746 30.5977 37.2746 30.7945V34.4941C37.2746 34.6992 37.4387 34.8633 37.6356 34.8633ZM43.3859 34.8633H47.5449C47.75 34.8633 47.9059 34.6992 47.9141 34.4941V30.7945C47.9141 30.5895 47.75 30.4336 47.5449 30.4336H43.3859C43.1891 30.4336 43.025 30.5977 43.025 30.7945V34.4941C43.025 34.6992 43.1809 34.8633 43.3859 34.8633ZM43.3859 29.5395H47.5449C47.75 29.5395 47.9141 29.3754 47.9141 29.1703V25.4625C47.9141 25.2656 47.75 25.1016 47.5449 25.1016H43.3859C43.1891 25.1016 43.025 25.2656 43.025 25.4625V29.1703C43.025 29.3754 43.1809 29.5395 43.3859 29.5395ZM49.1774 40.1953H53.3363C53.5332 40.1953 53.6973 40.0313 53.6973 39.8344V36.1348C53.6973 35.9297 53.5332 35.7738 53.3363 35.7656H49.1774C48.9805 35.7656 48.8164 35.9297 48.8164 36.1266V39.8344C48.8164 40.0313 48.9805 40.1953 49.1774 40.1953Z" fill="white"/>
</svg>
