<svg width="512" height="512" viewBox="0 0 512 512" fill="none" xmlns="http://www.w3.org/2000/svg">
<rect width="512" height="512" fill="#2C2C2C"/>
<path d="M186.094 310.766L227.499 158.674C228.21 156.062 230.581 154.25 233.288 154.25H275.613C279.718 154.25 282.61 158.278 281.299 162.167L216.299 354.917C215.476 357.357 213.188 359 210.613 359H186.121C182.47 359 179.665 355.766 180.181 352.151L186.094 310.766ZM142.837 154.25C145.544 154.25 147.915 156.062 148.626 158.674L190.031 310.766L196.18 352.118C196.719 355.743 193.91 359 190.245 359H165.38C162.801 359 160.51 357.352 159.691 354.907L95.0876 162.157C93.7848 158.27 96.677 154.25 100.777 154.25H142.837Z" fill="white"/>
<path d="M324.906 202.234L283.501 354.326C282.79 356.938 280.419 358.75 277.712 358.75H235.387C231.282 358.75 228.39 354.722 229.701 350.833L294.701 158.083C295.524 155.643 297.812 154 300.387 154H324.879C328.53 154 331.335 157.234 330.819 160.849L324.906 202.234ZM368.163 358.75C365.456 358.75 363.085 356.938 362.374 354.326L320.969 202.234L314.82 160.882C314.281 157.257 317.09 154 320.755 154H345.62C348.199 154 350.49 155.648 351.309 158.093L415.912 350.843C417.215 354.73 414.323 358.75 410.223 358.75H368.163Z" fill="white"/>
<path d="M351.248 219.325C349.649 213.752 353.978 208.249 359.772 208.49L389.371 209.722C405.371 210.388 418 223.553 418 239.568V263.733C418 274.768 409.981 284.167 399.083 285.904L387.126 287.811C382.855 288.491 378.741 285.905 377.503 281.761C375.85 276.229 379.994 270.667 385.768 270.667H389.467C395.457 270.667 400.422 266.024 400.824 260.048L401.526 249.589C402.402 236.545 392.058 225.482 378.985 225.482H359.418C355.626 225.482 352.293 222.97 351.248 219.325Z" fill="white"/>
<path d="M153.766 279.445C155.362 285.145 150.926 290.741 145.012 290.489L115.708 289.239C99.6588 288.554 87 275.344 87 259.281V233.289C87 222.318 94.9507 212.963 105.778 211.195L117.629 209.259C122.028 208.54 126.273 211.216 127.52 215.496C129.166 221.141 124.932 226.786 119.051 226.786H115.586C109.569 226.786 104.584 231.455 104.19 237.46L103.471 248.422C102.596 261.775 113.19 273.086 126.572 273.086H145.383C149.288 273.086 152.714 275.686 153.766 279.445Z" fill="white"/>
<path d="M105.825 391.488L429.694 171.665L403.669 197.93L91.323 410.844L105.825 391.488Z" fill="#2C2C2C"/>
<path d="M62.8254 297.488L386.694 77.6647L360.669 103.93L48.323 316.844L62.8254 297.488Z" fill="#2C2C2C"/>
</svg>
