<svg width="1080" height="673" viewBox="0 0 1080 673" fill="none" xmlns="http://www.w3.org/2000/svg">
<g clip-path="url(#clip0_511_2)">
<g filter="url(#filter0_i_511_2)">
<g filter="url(#filter1_i_511_2)">
<path d="M858.258 103.242H220.601C201.931 103.242 186.795 118.377 186.795 137.047V388.315C186.795 406.985 201.931 422.121 220.601 422.121H858.258C876.928 422.121 892.063 406.985 892.063 388.315V137.047C892.063 118.377 876.928 103.242 858.258 103.242Z" fill="#2B2B2B"/>
</g>
<path d="M314.426 167.828H256.956C250.733 167.828 245.688 172.873 245.688 179.097V224.171C245.688 230.394 250.733 235.439 256.956 235.439H314.426C320.649 235.439 325.694 230.394 325.694 224.171V179.097C325.694 172.873 320.649 167.828 314.426 167.828Z" fill="white"/>
<path d="M412.462 167.828H354.993C348.769 167.828 343.724 172.873 343.724 179.097V224.171C343.724 230.394 348.769 235.439 354.993 235.439H412.462C418.685 235.439 423.731 230.394 423.731 224.171V179.097C423.731 172.873 418.685 167.828 412.462 167.828Z" fill="white"/>
<path d="M510.498 167.828H453.029C446.805 167.828 441.76 172.873 441.76 179.097V224.171C441.76 230.394 446.805 235.439 453.029 235.439H510.498C516.722 235.439 521.767 230.394 521.767 224.171V179.097C521.767 172.873 516.722 167.828 510.498 167.828Z" fill="white"/>
<path d="M608.534 167.828H551.064C544.841 167.828 539.796 172.873 539.796 179.097V224.171C539.796 230.394 544.841 235.439 551.064 235.439H608.534C614.757 235.439 619.802 230.394 619.802 224.171V179.097C619.802 172.873 614.757 167.828 608.534 167.828Z" fill="white"/>
<path d="M706.57 167.828H649.101C642.878 167.828 637.833 172.873 637.833 179.097V224.171C637.833 230.394 642.878 235.439 649.101 235.439H706.57C712.794 235.439 717.839 230.394 717.839 224.171V179.097C717.839 172.873 712.794 167.828 706.57 167.828Z" fill="white"/>
<path d="M858.258 249.753H220.601C201.931 249.753 186.795 264.888 186.795 283.558V534.826C186.795 553.496 201.931 568.631 220.601 568.631H858.258C876.928 568.631 892.063 553.496 892.063 534.826V283.558C892.063 264.888 876.928 249.753 858.258 249.753Z" fill="#2B2B2B"/>
<g filter="url(#filter2_i_511_2)">
<path d="M314.426 284.227H256.956C250.733 284.227 245.688 289.272 245.688 295.495V469.03C245.688 475.254 250.733 480.299 256.956 480.299H314.426C320.649 480.299 325.694 475.254 325.694 469.03V295.495C325.694 289.272 320.649 284.227 314.426 284.227Z" fill="white"/>
<path d="M412.462 284.227H354.993C348.769 284.227 343.724 289.272 343.724 295.495V469.03C343.724 475.254 348.769 480.299 354.993 480.299H412.462C418.685 480.299 423.731 475.254 423.731 469.03V295.495C423.731 289.272 418.685 284.227 412.462 284.227Z" fill="white"/>
<path d="M510.498 284.227H453.029C446.805 284.227 441.76 289.272 441.76 295.495V469.03C441.76 475.254 446.805 480.299 453.029 480.299H510.498C516.722 480.299 521.767 475.254 521.767 469.03V295.495C521.767 289.272 516.722 284.227 510.498 284.227Z" fill="white"/>
<path d="M608.534 284.227H551.064C544.841 284.227 539.796 289.272 539.796 295.495V469.03C539.796 475.254 544.841 480.299 551.064 480.299H608.534C614.757 480.299 619.802 475.254 619.802 469.03V295.495C619.802 289.272 614.757 284.227 608.534 284.227Z" fill="white"/>
<path d="M706.57 284.227H649.101C642.877 284.227 637.832 289.272 637.832 295.495V469.03C637.832 475.254 642.877 480.299 649.101 480.299H706.57C712.793 480.299 717.838 475.254 717.838 469.03V295.495C717.838 289.272 712.793 284.227 706.57 284.227Z" fill="white"/>
</g>
</g>
<path d="M852.765 448.058H848.257C842.034 448.058 836.989 453.103 836.989 459.327V463.834C836.989 470.058 842.034 475.103 848.257 475.103H852.765C858.988 475.103 864.033 470.058 864.033 463.834V459.327C864.033 453.103 858.988 448.058 852.765 448.058Z" fill="black" fill-opacity="0.28"/>
<path d="M864.033 208.039C864.033 200.571 857.979 194.517 850.511 194.517C843.043 194.517 836.989 200.571 836.989 208.039C836.989 215.507 843.043 221.561 850.511 221.561C857.979 221.561 864.033 215.507 864.033 208.039Z" fill="#007ACC"/>
<path d="M857.272 235.646C857.272 231.601 853.993 228.322 849.948 228.322C845.902 228.322 842.623 231.601 842.623 235.646C842.623 239.692 845.902 242.971 849.948 242.971C853.993 242.971 857.272 239.692 857.272 235.646Z" fill="#27AE60"/>
<path d="M861.78 381.574H842.624C841.379 381.574 840.37 382.583 840.37 383.827V433.409C840.37 434.654 841.379 435.663 842.624 435.663H861.78C863.025 435.663 864.034 434.654 864.034 433.409V383.827C864.034 382.583 863.025 381.574 861.78 381.574Z" fill="#999696" fill-opacity="0.28"/>
<path d="M861.78 381.574H859.526C858.281 381.574 857.272 382.583 857.272 383.827V433.409C857.272 434.654 858.281 435.663 859.526 435.663H861.78C863.025 435.663 864.034 434.654 864.034 433.409V383.827C864.034 382.583 863.025 381.574 861.78 381.574Z" fill="#B3B3B3"/>
</g>
<defs>
<filter id="filter0_i_511_2" x="176.795" y="103.242" width="715.268" height="485.389" filterUnits="userSpaceOnUse" color-interpolation-filters="sRGB">
<feFlood flood-opacity="0" result="BackgroundImageFix"/>
<feBlend mode="normal" in="SourceGraphic" in2="BackgroundImageFix" result="shape"/>
<feColorMatrix in="SourceAlpha" type="matrix" values="0 0 0 0 0 0 0 0 0 0 0 0 0 0 0 0 0 0 127 0" result="hardAlpha"/>
<feOffset dx="-10" dy="20"/>
<feGaussianBlur stdDeviation="10"/>
<feComposite in2="hardAlpha" operator="arithmetic" k2="-1" k3="1"/>
<feColorMatrix type="matrix" values="0 0 0 0 0 0 0 0 0 0 0 0 0 0 0 0 0 0 0.25 0"/>
<feBlend mode="normal" in2="shape" result="effect1_innerShadow_511_2"/>
</filter>
<filter id="filter1_i_511_2" x="186.795" y="103.242" width="705.268" height="322.879" filterUnits="userSpaceOnUse" color-interpolation-filters="sRGB">
<feFlood flood-opacity="0" result="BackgroundImageFix"/>
<feBlend mode="normal" in="SourceGraphic" in2="BackgroundImageFix" result="shape"/>
<feColorMatrix in="SourceAlpha" type="matrix" values="0 0 0 0 0 0 0 0 0 0 0 0 0 0 0 0 0 0 127 0" result="hardAlpha"/>
<feOffset dy="4"/>
<feGaussianBlur stdDeviation="2"/>
<feComposite in2="hardAlpha" operator="arithmetic" k2="-1" k3="1"/>
<feColorMatrix type="matrix" values="0 0 0 0 0 0 0 0 0 0 0 0 0 0 0 0 0 0 0.25 0"/>
<feBlend mode="normal" in2="shape" result="effect1_innerShadow_511_2"/>
</filter>
<filter id="filter2_i_511_2" x="245.688" y="284.227" width="472.15" height="200.072" filterUnits="userSpaceOnUse" color-interpolation-filters="sRGB">
<feFlood flood-opacity="0" result="BackgroundImageFix"/>
<feBlend mode="normal" in="SourceGraphic" in2="BackgroundImageFix" result="shape"/>
<feColorMatrix in="SourceAlpha" type="matrix" values="0 0 0 0 0 0 0 0 0 0 0 0 0 0 0 0 0 0 127 0" result="hardAlpha"/>
<feOffset dy="4"/>
<feGaussianBlur stdDeviation="2"/>
<feComposite in2="hardAlpha" operator="arithmetic" k2="-1" k3="1"/>
<feColorMatrix type="matrix" values="0 0 0 0 0 0 0 0 0 0 0 0 0 0 0 0 0 0 0.25 0"/>
<feBlend mode="normal" in2="shape" result="effect1_innerShadow_511_2"/>
</filter>
<clipPath id="clip0_511_2">
<rect width="1080" height="673" fill="white"/>
</clipPath>
</defs>
</svg>
